# xmcd CD database file
#
# Track frame offsets:
#	150
#	69715
#	121420
#	174197
#	212180
#	226505
#	239132
#
# Disc length: 3335 seconds
#
# Revision: 1
# Processed by: cddbd v1.5.2PL0 Copyright (c) Steve Scherf et al.
# Submitted via: CDex 1.51
#
DISCID=5d0d0507
DTITLE=Duke Ellington - Masterpieces by Ellington
DYEAR=1951
DGENRE=Jazz
TTITLE0=Mood Indigo
TTITLE1=Sophisticated Lady
TTITLE2=The Tattooed Bride
TTITLE3=Solitude
TTITLE4=Vagabonds
TTITLE5=Smada
TTITLE6=Rock Skippin' at the Bluenote
EXTD=YEAR: 1951
EXTT0=
EXTT1=
EXTT2=
EXTT3=
EXTT4=
EXTT5=
EXTT6=
PLAYORDER=
